<svg xmlns="http://www.w3.org/2000/svg" xml:space="preserve" width="64px" height="64px" version="1.1" shape-rendering="geometricPrecision" text-rendering="geometricPrecision" image-rendering="optimizeQuality" fill-rule="evenodd" clip-rule="evenodd"
viewBox="0 0 21.23 21.23">
 <g>
  <rect fill="#0D2F3B" width="21.23" height="21.23"/>
  <path fill="#BBDC00" fill-rule="nonzero" d="M10.57 6.63c-1.59,0 -3.03,0.52 -4.18,1.53l0 -5.81c0,-0.53 -0.44,-0.92 -1.06,-0.92l-0.15 0c-0.62,0 -1.05,0.39 -1.05,0.92l0 10.86c0,1.83 0.62,3.42 1.87,4.67 1.25,1.25 2.79,1.92 4.62,1.92 1.82,0 3.36,-0.62 4.61,-1.92 1.25,-1.25 1.88,-2.84 1.88,-4.67 0,-1.82 -0.63,-3.41 -1.88,-4.66 -1.3,-1.3 -2.83,-1.92 -4.66,-1.92l0 0zm0 10.91c-1.2,0 -2.16,-0.38 -2.93,-1.25 -0.82,-0.82 -1.21,-1.87 -1.21,-3.12 0,-1.21 0.39,-2.22 1.16,-3.08 0.82,-0.82 1.78,-1.25 2.98,-1.25 1.2,0 2.16,0.38 2.98,1.25 0.82,0.86 1.2,1.87 1.2,3.08 0,1.25 -0.38,2.25 -1.2,3.07 -0.82,0.87 -1.78,1.3 -2.98,1.3l0 0z"/>
 </g>
</svg>
